<mxfile host="app.diagrams.net" agent="Mozilla/5.0 (Windows NT 10.0; Win64; x64) AppleWebKit/537.36 (KHTML, like Gecko) Chrome/133.0.0.0 Safari/537.36" version="26.0.16">
  <diagram id="kgpKYQtTHZ0yAKxKKP6v" name="Page-1">
    <mxGraphModel dx="880" dy="1534" grid="1" gridSize="10" guides="1" tooltips="1" connect="1" arrows="1" fold="1" page="1" pageScale="1" pageWidth="850" pageHeight="1100" math="0" shadow="0">
      <root>
        <mxCell id="0" />
        <mxCell id="1" parent="0" />
        <mxCell id="tzMtzAPBGI_lFstPEY7b-1" value="Activity diagram tambah kuisioner" style="swimlane;childLayout=stackLayout;resizeParent=1;resizeParentMax=0;startSize=20;html=1;" vertex="1" parent="1">
          <mxGeometry x="240.00000000000045" y="-310" width="360" height="480" as="geometry" />
        </mxCell>
        <mxCell id="tzMtzAPBGI_lFstPEY7b-2" value="Lane 1" style="swimlane;startSize=20;html=1;" vertex="1" parent="tzMtzAPBGI_lFstPEY7b-1">
          <mxGeometry y="20" width="120" height="460" as="geometry" />
        </mxCell>
        <mxCell id="tzMtzAPBGI_lFstPEY7b-3" value="Lane 2" style="swimlane;startSize=20;html=1;" vertex="1" parent="tzMtzAPBGI_lFstPEY7b-1">
          <mxGeometry x="120" y="20" width="120" height="460" as="geometry" />
        </mxCell>
        <mxCell id="tzMtzAPBGI_lFstPEY7b-4" value="Lane 3" style="swimlane;startSize=20;html=1;" vertex="1" parent="tzMtzAPBGI_lFstPEY7b-1">
          <mxGeometry x="240" y="20" width="120" height="460" as="geometry" />
        </mxCell>
      </root>
    </mxGraphModel>
  </diagram>
</mxfile>
